<?xml version="1.0" encoding="iso-8859-1"?>
<!-- Generator: Adobe Illustrator 16.0.0, SVG Export Plug-In . SVG Version: 6.00 Build 0)  -->
<!DOCTYPE svg PUBLIC "-//W3C//DTD SVG 1.1//EN" "http://www.w3.org/Graphics/SVG/1.1/DTD/svg11.dtd">
<svg version="1.1" id="Capa_1" xmlns="http://www.w3.org/2000/svg" xmlns:xlink="http://www.w3.org/1999/xlink" x="0px" y="0px"
	 width="566.1px" height="566.1px" viewBox="0 0 566.1 566.1" style="enable-background:new 0 0 566.1 566.1;" xml:space="preserve"
	>
<g>
	<g>
		<path d="M283.05,566.1c156.323,0,283.05-126.727,283.05-283.05S439.373,0,283.05,0S0,126.727,0,283.05S126.727,566.1,283.05,566.1
			z M51.31,276.149l142.614-142.614c3.812-3.81,6.9-2.531,6.9,2.858v41.821c0,5.389,4.37,9.758,9.758,9.758h263.503
			c3.411,0,6.175,2.766,6.175,6.175v177.802c0,3.411-2.764,6.175-6.175,6.175H210.583c-5.389,0-9.758,4.37-9.758,9.759v41.82
			c0,5.389-3.091,6.671-6.9,2.858L51.31,289.947C47.497,286.141,47.497,279.959,51.31,276.149z"/>
	</g>
</g>
<g>
</g>
<g>
</g>
<g>
</g>
<g>
</g>
<g>
</g>
<g>
</g>
<g>
</g>
<g>
</g>
<g>
</g>
<g>
</g>
<g>
</g>
<g>
</g>
<g>
</g>
<g>
</g>
<g>
</g>
</svg>
